<?xml version="1.0" encoding="utf-8"?>
<!-- Generator: Adobe Illustrator 16.0.0, SVG Export Plug-In . SVG Version: 6.00 Build 0)  -->
<!DOCTYPE svg PUBLIC "-//W3C//DTD SVG 1.1//EN" "http://www.w3.org/Graphics/SVG/1.1/DTD/svg11.dtd">
<svg version="1.1" id="Layer_1" xmlns="http://www.w3.org/2000/svg" xmlns:xlink="http://www.w3.org/1999/xlink" x="0px" y="0px"
	 width="170.941px" height="25px" viewBox="0 0 170.941 25" enable-background="new 0 0 170.941 25" xml:space="preserve">
<polyline fill="#FFFFFF" points="63.155,22.217 71.763,0.147 66.73,0.147 61.12,16.005 "/>
<polyline fill="#FFFFFF" points="60.136,18.786 53.472,0.147 48.439,0.147 58.122,24.79 62.151,24.79 "/>
<polygon fill="#FFFFFF" points="41.273,0.147 35.412,15.171 35.99,16.959 37.664,22.048 43.287,6.151 49.952,24.79 54.984,24.79 
	45.302,0.147 "/>
<g>
	<polygon fill="#FFFFFF" points="77.56,13.85 88.246,13.85 88.246,10.578 77.56,10.578 77.56,3.733 89.924,3.733 89.924,0.144 
		73.363,0.144 73.363,24.783 90.248,24.783 90.248,21.192 77.56,21.192 	"/>
	<rect x="116.136" y="0.144" fill="#FFFFFF" width="4.202" height="24.64"/>
	<path fill="#FFFFFF" d="M138.357,21.147c-1.882,0.437-3.594,0.229-5.057-0.532c-0.953-0.493-1.785-1.161-2.472-1.983
		c-0.68-0.812-1.211-1.771-1.584-2.849c-0.368-1.069-0.557-2.198-0.557-3.356c0-1.03,0.162-2.084,0.479-3.125
		c0.322-1.051,0.804-2.003,1.434-2.831c0.643-0.838,1.451-1.528,2.406-2.049c1.411-0.766,3.261-1.023,5.24-0.59
		c0.622,0.137,1.231,0.359,1.807,0.658c0.58,0.302,1.127,0.717,1.627,1.23c0.418,0.429,0.785,0.938,1.094,1.521l3.173-2.184
		c-0.805-1.45-1.984-2.65-3.519-3.573C140.789,0.499,138.815,0,136.562,0c-1.914,0-3.642,0.362-5.135,1.072
		c-1.498,0.716-2.781,1.662-3.816,2.81c-1.034,1.152-1.835,2.479-2.374,3.938c-0.542,1.461-0.816,2.963-0.816,4.465
		c0,1.567,0.297,3.129,0.887,4.638c0.588,1.516,1.418,2.885,2.469,4.074c1.049,1.185,2.316,2.161,3.77,2.898
		c2.255,1.147,4.972,1.425,7.859,0.722c1.036-0.254,2.021-0.627,2.935-1.11c0.905-0.481,1.73-1.082,2.452-1.781
		c0.635-0.615,1.145-1.322,1.519-2.104l-3.398-1.954c-0.282,0.574-0.633,1.077-1.049,1.504c-0.503,0.515-1.055,0.938-1.642,1.263
		C139.637,20.757,139.008,20.998,138.357,21.147z"/>
	<polygon fill="#FFFFFF" points="160.866,11.015 170.255,0.144 165.788,0.144 154.607,12.828 154.607,0.18 150.407,0.18 
		150.407,24.783 154.607,24.783 154.607,17.427 158.265,13.607 166.31,24.783 170.941,24.783 	"/>
	<path fill="#FFFFFF" d="M107.036,15.271c1.33-0.562,2.396-1.492,3.171-2.765c0.785-1.284,1.181-2.729,1.181-4.294
		c0-0.971-0.196-1.952-0.581-2.92c-0.389-0.971-0.933-1.849-1.613-2.606c-0.672-0.758-1.493-1.378-2.443-1.851
		c-0.934-0.457-1.967-0.691-3.071-0.691H92.824v24.64h4.2V3.733h6.334c0.479,0,0.96,0.116,1.427,0.343
		c0.461,0.222,0.873,0.541,1.227,0.948c0.343,0.389,0.625,0.866,0.834,1.412c0.204,0.541,0.309,1.14,0.309,1.775
		c0,0.61-0.09,1.188-0.268,1.724c-0.181,0.54-0.428,1.017-0.737,1.414c-0.318,0.406-0.698,0.734-1.131,0.973
		c-0.446,0.241-0.935,0.365-1.448,0.365h-3.298l7.364,12.096h4.68l-5.671-9.347L107.036,15.271z"/>
</g>
<polygon fill="#FFFFFF" points="34.389,17.794 34.298,17.516 28.693,0.151 26.45,0.15 26.364,0.15 26.28,0.15 24.038,0.151 
	18.323,17.851 12.608,0.151 10.368,0.15 10.283,0.15 10.196,0.15 7.956,0.151 0,24.788 4.747,24.788 10.283,7.65 15.818,24.788 
	16.083,24.788 20.564,24.788 20.829,24.788 26.364,7.65 31.792,24.452 31.901,24.788 36.691,24.79 "/>
<polygon fill="#FFFFFF" points="31.139,24.452 31.007,24.791 36.037,24.79 31.248,24.788 "/>
</svg>
