<?xml version="1.0" encoding="utf-8"?>
<!-- Generator: Adobe Illustrator 16.0.0, SVG Export Plug-In . SVG Version: 6.00 Build 0)  -->
<!DOCTYPE svg PUBLIC "-//W3C//DTD SVG 1.1//EN" "http://www.w3.org/Graphics/SVG/1.1/DTD/svg11.dtd">
<svg version="1.1" id="Layer_1" xmlns="http://www.w3.org/2000/svg" xmlns:xlink="http://www.w3.org/1999/xlink" x="0px" y="0px"
	 width="24px" height="24px" viewBox="0 0 24 24" enable-background="new 0 0 24 24" xml:space="preserve">
<g>
	<path d="M16.747,2.133c1.564,0,2.867,0.488,3.767,1.41c0.886,0.907,1.354,2.19,1.354,3.71v9.493c0,1.521-0.484,2.809-1.4,3.724
		c-0.915,0.914-2.202,1.396-3.72,1.396H7.254c-1.562,0-2.864-0.489-3.766-1.416c-0.886-0.91-1.355-2.191-1.355-3.705V7.253
		c0-3.11,2.094-5.12,5.334-5.12H16.747 M16.747,0H7.467C3.076,0,0,2.951,0,7.253v9.493C0,20.925,2.809,24,7.254,24h9.493
		C21.013,24,24,21.031,24,16.747V7.253C24,3.058,21.191,0,16.747,0L16.747,0z"/>
	<g>
		<path d="M12.027,7.947c2.22,0,4.026,1.806,4.026,4.027c0,2.22-1.806,4.026-4.026,4.026C9.806,16,8,14.193,8,11.974
			C8,9.753,9.806,7.947,12.027,7.947 M12.027,5.813c-3.402,0-6.16,2.758-6.16,6.161c0,3.402,2.758,6.16,6.16,6.16
			c3.402,0,6.16-2.758,6.16-6.16C18.187,8.571,15.429,5.813,12.027,5.813L12.027,5.813z"/>
	</g>
	<circle cx="18.374" cy="5.627" r="1.467"/>
</g>
</svg>
