<?xml version="1.0" encoding="utf-8"?>
<!-- Generator: Adobe Illustrator 16.0.0, SVG Export Plug-In . SVG Version: 6.00 Build 0)  -->
<!DOCTYPE svg PUBLIC "-//W3C//DTD SVG 1.1//EN" "http://www.w3.org/Graphics/SVG/1.1/DTD/svg11.dtd">
<svg version="1.1" id="Layer_1" xmlns="http://www.w3.org/2000/svg" xmlns:xlink="http://www.w3.org/1999/xlink" x="0px" y="0px"
	 width="25px" height="20.737px" viewBox="0 0 25 20.737" enable-background="new 0 0 25 20.737" xml:space="preserve">
<path d="M22.688,5.133C23.504,17.164,9.911,24.668,0,18.572c2.78,0.021,5.861-0.742,7.514-2.312
	c-2.404-0.389-4.108-1.479-4.769-3.613c0.704-0.066,1.693,0.151,2.168-0.144c-2.199-0.835-3.938-2.131-4.047-5.058
	c0.784,0.083,1.191,0.543,2.168,0.434C1.612,6.966-0.012,3.5,1.445,0.942c2.581,2.862,5.803,5.083,10.838,5.492
	c-1.249-5.312,5.792-8.603,8.959-4.769c1.232-0.262,2.27-0.717,3.324-1.156c-0.432,1.206-1.309,1.966-2.167,2.746
	C23.332,3.08,24.319,2.958,25,2.532C24.88,3.473,23.515,4.417,22.688,5.133z"/>
</svg>
